# xmcd
#
# Track frame offsets: 
#        150
#        29310
#        55122
#        79975
#        103192
#        129080
#        150175
#        174760
#        200020
#        224505
#        251485
#        276000
#        306670
#        328222
#
# Disc length: 4706 seconds
#
# Revision: 1
# Processed by: cddbd v1.5.2PL0 Copyright (c) Steve Scherf et al.
# Submitted via: ExactAudioCopy v0.99pb4
#
DISCID=c212600e
DTITLE=Glenn Jones - Giving Myself To You - Greatest Hits
DYEAR=1998
DGENRE=R&B
TTITLE0=I Am Somebody
TTITLE1=Keep On Doin
TTITLE2=Show Me
TTITLE3=Finesse
TTITLE4=You're The Only One I Love
TTITLE5=Finder Of Lost Loves
TTITLE6=Bring Back Your Love
TTITLE7=Giving Myself To You
TTITLE8=Stay 1986
TTITLE9=We've Only Just Begun
TTITLE10=At Last
TTITLE11=Stay 1990
TTITLE12=Here I Go Again
TTITLE13=I've Been Searchin (Nobody Like You)
EXTD=
EXTT0=
EXTT1=
EXTT2=
EXTT3=
EXTT4=
EXTT5=
EXTT6=
EXTT7=
EXTT8=
EXTT9=
EXTT10=
EXTT11=
EXTT12=
EXTT13=
PLAYORDER=
